<svg width="159" height="42" viewBox="0 0 159 42" fill="none" xmlns="http://www.w3.org/2000/svg">
<path fill-rule="evenodd" clip-rule="evenodd" d="M75.4216 20.4201C75.2374 20.4201 75.0882 20.2691 75.0882 20.0831V4.61905C75.0882 4.43289 75.2374 4.28198 75.4216 4.28198H79.0438C84.4546 4.28198 91.1042 5.31588 91.1042 12.1645C91.1042 19.013 85.2288 20.4201 79.725 20.4201H75.4216ZM69.8166 41.4061C69.8166 41.5922 69.9658 41.7432 70.15 41.7432H74.7548C74.9388 41.7432 75.0882 41.5922 75.0882 41.4061V24.9316C75.0882 24.7454 75.2374 24.5945 75.4216 24.5945H79.5391C87.5278 24.5945 96.4377 21.5628 96.4377 12.1023C96.4377 8.38647 94.7656 5.23814 91.7777 3.04597C88.1084 0.356298 83.1774 0.0997675 78.7961 0.0997675H70.15C69.9658 0.0997675 69.8166 0.250678 69.8166 0.436835V41.4061ZM40.7416 39.9801C40.7416 39.9793 40.7423 39.9788 40.7431 39.9791C44.5436 41.5723 48.9553 42.536 53.7618 41.681C59.5056 40.6548 64.3824 37.7242 64.3824 31.1089C64.3824 18.4923 45.541 17.2406 45.541 9.9101C45.541 2.78461 56.4534 3.52543 60.9669 5.56434C61.1614 5.65219 61.3903 5.54582 61.4431 5.33717L62.2765 2.04797C62.3168 1.88823 62.2403 1.72335 62.0899 1.6596C54.6804 -1.48115 40.3932 -0.879595 40.3932 9.78572C40.3932 20.5755 58.9869 21.7104 58.9869 30.7979C58.9869 34.7703 56.4944 36.4494 53.3206 37.1877C49.8367 37.9968 45.4758 37.3042 42.4895 36.0562C42.3098 35.981 42.1031 36.0715 42.0385 36.2569L40.7436 39.9805C40.7433 39.9815 40.7416 39.9813 40.7416 39.9801ZM150.856 0.568987C150.856 0.38283 151.006 0.23192 151.19 0.23192H158.667C158.851 0.23192 159 0.38283 159 0.568987V40.854C159 41.1633 158.622 41.3092 158.418 41.079L134.362 13.9325C134.158 13.7022 133.78 13.8482 133.78 14.1574V41.4061C133.78 41.5922 133.631 41.7432 133.447 41.7432H128.842C128.658 41.7432 128.508 41.5922 128.508 41.4061V1.10182C128.508 0.793985 128.883 0.647241 129.088 0.874711L153.149 27.551C153.354 27.7783 153.728 27.6317 153.728 27.3238V4.74343C153.728 4.55726 153.579 4.40636 153.395 4.40636H151.19C151.006 4.40636 150.856 4.25545 150.856 4.06929V0.568987ZM106.106 17.5411C106.106 17.7271 106.255 17.8781 106.439 17.8781H121.27C121.454 17.8781 121.603 18.029 121.603 18.2152V21.7155C121.603 21.9015 121.454 22.0525 121.27 22.0525H106.439C106.255 22.0525 106.106 22.2034 106.106 22.3896V37.2317C106.106 37.4178 106.255 37.5688 106.439 37.5688H123.871C124.055 37.5688 124.204 37.7196 124.204 37.9058V41.4061C124.204 41.5922 124.055 41.7432 123.871 41.7432H101.168C100.984 41.7432 100.835 41.5922 100.835 41.4061V0.568989C100.835 0.382832 100.984 0.23192 101.168 0.23192H123.871C124.055 0.23192 124.204 0.38283 124.204 0.568987V4.06929C124.204 4.25545 124.055 4.40636 123.871 4.40636H106.439C106.255 4.40636 106.106 4.55726 106.106 4.74343V17.5411ZM13.238 25.1849C13.238 25.1832 13.2403 25.1827 13.241 25.1842L20.4727 41.5436C20.5264 41.665 20.6457 41.7432 20.7771 41.7432H25.0703C25.3139 41.7432 25.4752 41.4875 25.3727 41.2642L15.7433 20.286C15.701 20.1938 15.7021 20.0871 15.7462 19.9959L19.7664 11.6877C19.8909 11.4304 20.2561 11.4375 20.3706 11.6995L33.4237 41.5425C33.4771 41.6645 33.5966 41.7432 33.7286 41.7432H38.7562C38.9999 41.7432 39.1613 41.4875 39.0586 41.2642L20.3446 0.508253C20.2266 0.250927 19.866 0.247273 19.7427 0.502153L0.0342877 41.2659C-0.0739768 41.4897 0.0872855 41.7509 0.333822 41.7509H5.0104C5.13771 41.7509 5.2539 41.6776 5.30986 41.562L13.2379 25.1856C13.2379 25.1856 13.238 25.1852 13.238 25.1849Z" fill="#1A273F"/>
</svg>
